<?xml version="1.0" standalone="no"?>
<!DOCTYPE svg PUBLIC "-//W3C//DTD SVG 1.1//EN" "http://www.w3.org/Graphics/SVG/1.1/DTD/svg11.dtd" >
<svg xmlns="http://www.w3.org/2000/svg" xmlns:xlink="http://www.w3.org/1999/xlink" version="1.1">
<metadata>
Created by FontForge 20170924 at Tue Jun  9 17:41:44 2015
 By www-data
Typeface (c) (Tugcu Co). &#60;2015&#62;. All Rights Reserved
</metadata>
<defs>
<font id="Centauri" horiz-adv-x="2685" >
  <font-face 
    font-family="Centauri"
    font-weight="400"
    font-stretch="normal"
    units-per-em="2048"
    panose-1="2 0 5 0 0 0 0 0 0 0"
    ascent="1638"
    descent="-410"
    x-height="1431"
    cap-height="1431"
    bbox="150 -358 3722 1789"
    underline-thickness="150"
    underline-position="-292"
    unicode-range="U+001D-F002"
  />
<missing-glyph horiz-adv-x="1124" 
d="M150 0v1434h824v-1434h-824zM200 50h724v1334h-724v-1334zM375 1148q31 28 58 43q53 30 112 30q92 0 148 -47.5t56 -127.5q0 -49 -23 -98.5t-87 -129.5q-63 -80 -99 -132t-36 -99q0 -38 24 -133h-32q-35 97 -35 148q0 76 81.5 218t81.5 217q0 57 -33 90t-91 33
q-38 0 -69 -17q-26 -15 -56 -40v45zM439 334l57 58q11 10 20 10q10 0 22 -11l56 -60q9 -11 9 -20q0 -11 -10 -22l-56 -62q-14 -14 -21 -14q-11 0 -20 10l-61 71q-7 9 -7 18q0 10 11 22z" />
    <glyph glyph-name=".notdef" horiz-adv-x="1124" 
d="M150 0v1434h824v-1434h-824zM200 50h724v1334h-724v-1334zM375 1148q31 28 58 43q53 30 112 30q92 0 148 -47.5t56 -127.5q0 -49 -23 -98.5t-87 -129.5q-63 -80 -99 -132t-36 -99q0 -38 24 -133h-32q-35 97 -35 148q0 76 81.5 218t81.5 217q0 57 -33 90t-91 33
q-38 0 -69 -17q-26 -15 -56 -40v45zM439 334l57 58q11 10 20 10q10 0 22 -11l56 -60q9 -11 9 -20q0 -11 -10 -22l-56 -62q-14 -14 -21 -14q-11 0 -20 10l-61 71q-7 9 -7 18q0 10 11 22z" />
    <glyph glyph-name=".null" horiz-adv-x="0" 
 />
    <glyph glyph-name=".null" horiz-adv-x="0" 
 />
    <glyph glyph-name="nonmarkingreturn" horiz-adv-x="508" 
 />
    <glyph glyph-name="space" unicode=" " horiz-adv-x="508" 
 />
    <glyph glyph-name="space" unicode="&#xa0;" horiz-adv-x="508" 
 />
    <glyph glyph-name="exclam" unicode="!" horiz-adv-x="538" 
d="M150 0h238v238h-238v-238zM150 358h238v1073h-238v-1073z" />
    <glyph glyph-name="numbersign" unicode="#" horiz-adv-x="2089" 
d="M1557 1431l-104 -358h-608l104 358h-239l-104 -358h-337v-238h268l-70 -239h-317v-238h247l-104 -358h239l104 358h608l-104 -358h238l104 358h337v238h-267l70 239h317v238h-248l104 358h-238zM775 835h608l-69 -239h-609z" />
    <glyph glyph-name="percent" unicode="%" horiz-adv-x="2864" 
d="M567 1192q-74 0 -126 -52q-53 -53 -53 -126v-120q0 -74 53 -126q52 -53 126 -53h239q74 0 126 53q53 52 53 126v120q0 73 -53 126q-52 52 -126 52h-239zM567 477q-172 0 -295 122q-122 123 -122 295v120q0 172 122 294q123 123 295 123h239q172 0 295 -123
q122 -122 122 -294v-120q0 -172 -122 -295q-123 -122 -295 -122h-239zM2058 715q-74 0 -127 -52q-52 -52 -52 -126v-120q0 -74 52 -126q53 -53 127 -53h238q74 0 127 53q52 52 52 126v120q0 74 -52 126q-53 52 -127 52h-238zM2058 0q-173 0 -295 122q-123 123 -123 295v120
q0 172 123 295q122 122 295 122h238q173 0 295 -122q123 -123 123 -295v-120q0 -172 -123 -295q-122 -122 -295 -122h-238zM1342 0h-238l417 1431h239z" />
    <glyph glyph-name="ampersand" unicode="&#x26;" horiz-adv-x="2625" 
d="M2058 417q0 -74 -53 -126q-52 -53 -126 -53h-1312q-74 0 -126 53q-53 52 -53 126t53 127q52 52 126 52h1491v-179zM2296 835v179h-238v-179h-1491q-74 0 -126 52q-53 53 -53 127q0 73 53 126q52 52 126 52h1610v239h-1610q-172 0 -295 -123q-122 -122 -122 -294
q0 -176 126 -299q-126 -123 -126 -298q0 -172 122 -295q123 -122 295 -122h1312q172 0 295 122q122 123 122 295v179h179v239h-179z" />
    <glyph glyph-name="parenleft" unicode="(" horiz-adv-x="717" 
d="M567 1788q-172 0 -295 -122q-122 -122 -122 -295v-1312q0 -172 122 -295q123 -122 295 -122v238q-74 0 -126 53q-53 52 -53 126v1312q0 74 53 126q52 53 126 53v238z" />
    <glyph glyph-name="parenright" unicode=")" horiz-adv-x="717" 
d="M150 1550q74 0 126 -53q53 -52 53 -126v-1312q0 -74 -53 -126q-52 -53 -126 -53v-238q173 0 295 122q122 123 122 295v1312q0 173 -122 295t-295 122v-238z" />
    <glyph glyph-name="comma" unicode="," horiz-adv-x="717" 
d="M150 -120q74 0 126 53q53 52 53 126v179h238v-179q0 -172 -122 -295q-122 -122 -295 -122v238z" />
    <glyph glyph-name="hyphen" unicode="-" horiz-adv-x="1969" 
d="M150 596h1669v238h-1669v-238z" />
    <glyph glyph-name="hyphen" unicode="&#xad;" horiz-adv-x="1969" 
d="M150 596h1669v238h-1669v-238z" />
    <glyph glyph-name="period" unicode="." horiz-adv-x="538" 
d="M150 0h238v238h-238v-238z" />
    <glyph glyph-name="slash" unicode="/" horiz-adv-x="956" 
d="M567 1431l-417 -1431h238l418 1431h-239z" />
    <glyph glyph-name="zero" unicode="0" 
d="M567 1192q-74 0 -126 -52q-53 -53 -53 -126v-597q0 -74 53 -126q52 -53 126 -53h1550q74 0 127 53q52 52 52 126v597q0 73 -52 126q-53 52 -127 52h-1550zM567 0q-172 0 -295 122q-122 123 -122 295v597q0 172 122 294q123 123 295 123h1550q173 0 295 -123
q123 -122 123 -294v-597q0 -172 -123 -295q-122 -122 -295 -122h-1550z" />
    <glyph glyph-name="one" unicode="1" horiz-adv-x="1831" 
d="M1375 1431l-1225 -441v-254l1292 466v-1202h239v1431h-306z" />
    <glyph glyph-name="two" unicode="2" horiz-adv-x="2698" 
d="M2399 977l6 3q75 39 109 113q34 73 14 155t-84 133q-64 50 -148 50h-2146v-239h2146l-2146 -943v-249h2385v238h-1817z" />
    <glyph glyph-name="three" unicode="3" 
d="M2412 1308q-122 123 -295 123h-1967v-239h1967q74 0 127 -52q52 -53 52 -126q0 -74 -52 -127q-53 -52 -127 -52h-1967v-239h1967q74 0 127 -52q52 -53 52 -127t-52 -126q-53 -53 -127 -53h-1967v-238h1967q173 0 295 122q123 123 123 295q0 176 -126 298q126 123 126 299
q0 172 -123 294z" />
    <glyph glyph-name="four" unicode="4" horiz-adv-x="2674" 
d="M1342 1431l-1192 -1193h1778v-238h239v238h357v239h-357v358h-239v-358h-1202l954 954h-338z" />
    <glyph glyph-name="five" unicode="5" 
d="M150 0v238h1967q74 0 127 53q52 52 52 126t-52 127q-53 52 -127 52h-1967v835h2325v-239h-2087v-357h1729q173 0 295 -123q123 -122 123 -295q0 -172 -123 -295q-122 -122 -295 -122h-1967z" />
    <glyph glyph-name="six" unicode="6" 
d="M388 596v-179q0 -74 53 -126q52 -53 126 -53h1550q74 0 127 53q52 52 52 126t-52 127q-53 52 -127 52h-1729zM567 0q-172 0 -295 122q-122 123 -122 295v597q0 172 122 294q123 123 295 123h1908v-239h-1908q-74 0 -126 -52q-53 -53 -53 -126v-179h1729q173 0 295 -123
q123 -122 123 -295q0 -172 -123 -295q-122 -122 -295 -122h-1550z" />
    <glyph glyph-name="seven" unicode="7" horiz-adv-x="2620" 
d="M150 1431v-239h1853l-863 -1192h294l1036 1431h-2320z" />
    <glyph glyph-name="eight" unicode="8" 
d="M567 238q-74 0 -126 53q-53 52 -53 126t53 127q52 52 126 52h1550q74 0 127 -52q52 -53 52 -127t-52 -126q-53 -53 -127 -53h-1550zM441 1140q52 52 126 52h1550q74 0 127 -52q52 -53 52 -126q0 -74 -52 -127q-53 -52 -127 -52h-1550q-74 0 -126 52q-53 53 -53 127
q0 73 53 126zM2535 1014q0 172 -123 294q-122 123 -295 123h-1550q-172 0 -295 -123q-122 -122 -122 -294q0 -176 126 -299q-126 -123 -126 -298q0 -172 122 -295q123 -122 295 -122h1550q173 0 295 122q123 123 123 295q0 175 -126 298q126 123 126 299z" />
    <glyph glyph-name="nine" unicode="9" 
d="M567 1192q-74 0 -126 -52q-53 -53 -53 -126q0 -74 53 -127q52 -52 126 -52h1729v179q0 73 -52 126q-53 52 -127 52h-1550zM2535 0h-239v596h-1729q-172 0 -295 123q-122 122 -122 295q0 172 122 294q123 123 295 123h1550q173 0 295 -123q123 -122 123 -294v-1014z" />
    <glyph glyph-name="colon" unicode=":" horiz-adv-x="538" 
d="M150 0h238v238h-238v-238zM150 596h238v239h-238v-239z" />
    <glyph glyph-name="semicolon" unicode=";" horiz-adv-x="717" 
d="M150 -120q74 0 126 53q53 52 53 126v179h238v-179q0 -172 -122 -295q-122 -122 -295 -122v238zM329 596h238v238h-238v-238z" />
    <glyph glyph-name="semicolon" unicode="&#x37e;" horiz-adv-x="717" 
d="M150 -120q74 0 126 53q53 52 53 126v179h238v-179q0 -172 -122 -295q-122 -122 -295 -122v238zM329 596h238v238h-238v-238z" />
    <glyph glyph-name="question" unicode="?" horiz-adv-x="2506" 
d="M1104 0h238v238h-238v-238zM150 1431v-239h1789q74 0 126 -52q52 -53 52 -126q0 -74 -52 -127q-52 -52 -126 -52h-835v-477h238v238h597q172 0 294 123q123 122 123 295q0 172 -123 294q-122 123 -294 123h-1789z" />
    <glyph glyph-name="A" unicode="A" horiz-adv-x="3031" 
d="M1409 1431l-1259 -1431h318l210 238h1675l210 -238h318l-1259 1431h-213zM1515 1191l629 -714h-1257z" />
    <glyph glyph-name="B" unicode="B" 
d="M388 835h1729q74 0 127 52q52 53 52 127q0 73 -52 126q-53 52 -127 52h-1729v-357zM388 238h1729q74 0 127 53q52 52 52 126t-52 127q-53 52 -127 52h-1729v-358zM150 0v1431h1967q173 0 295 -123q123 -122 123 -294q0 -176 -126 -299q126 -122 126 -298
q0 -172 -123 -295q-122 -122 -295 -122h-1967z" />
    <glyph glyph-name="C" unicode="C" 
d="M2535 0h-1670q-295 0 -505 210t-210 505q0 296 210 506t505 210h1670v-239h-1670q-197 0 -337 -139q-140 -140 -140 -338q0 -197 140 -337t337 -140h1670v-238z" />
    <glyph glyph-name="D" unicode="D" 
d="M388 238v954h1431q198 0 337 -139q140 -140 140 -338q0 -197 -140 -337q-139 -140 -337 -140h-1431zM150 1431v-1431h1669q296 0 506 210t210 505q0 296 -210 506t-506 210h-1669z" />
    <glyph glyph-name="E" unicode="E" 
d="M150 1431v-1431h2385v238h-2147v358h2147v239h-2147v357h2147v239h-2385z" />
    <glyph glyph-name="F" unicode="F" 
d="M150 1431v-1431h238v596h2147v239h-2147v357h2147v239h-2385z" />
    <glyph glyph-name="G" unicode="G" 
d="M567 0q-172 0 -295 122q-122 123 -122 295v597q0 172 122 294q123 123 295 123h1610q148 0 253 -105t105 -253h-239q0 49 -35 84t-84 35h-1610q-74 0 -126 -52q-53 -53 -53 -126v-597q0 -74 53 -126q52 -53 126 -53h1550q74 0 127 53q52 52 52 126v179h-715v239h954v-418
q0 -172 -123 -295q-122 -122 -295 -122h-1550z" />
    <glyph glyph-name="H" unicode="H" 
d="M2296 1431v-596h-1908v596h-238v-1431h238v596h1908v-596h239v1431h-239z" />
    <glyph glyph-name="I" unicode="I" horiz-adv-x="538" 
d="M150 0h238v1431h-238v-1431z" />
    <glyph glyph-name="J" unicode="J" horiz-adv-x="1969" 
d="M150 0v238h1252q74 0 126 53q53 52 53 126v1014h238v-1014q0 -172 -122 -295q-122 -122 -295 -122h-1252z" />
    <glyph glyph-name="K" unicode="K" 
d="M2535 1431h-239v-119q0 -198 -140 -338q-139 -139 -337 -139h-1431v596h-238v-1431h238v596h1431q198 0 337 -140q140 -140 140 -337v-119h239v119q0 183 -88 343q-85 155 -233 253q148 98 233 253q88 160 88 344v119z" />
    <glyph glyph-name="L" unicode="L" 
d="M150 1431v-1431h2385v238h-2147v1193h-238z" />
    <glyph glyph-name="M" unicode="M" horiz-adv-x="2804" 
d="M2423 1431l-1021 -913l-1021 913h-231v-1431h238v1105l1014 -907l1013 907v-1105h239v1431h-231z" />
    <glyph glyph-name="N" unicode="N" 
d="M2296 1431v-1208l-1812 1208h-334v-1431h238v1208l1813 -1208h334v1431h-239z" />
    <glyph glyph-name="O" unicode="O" 
d="M567 1192q-74 0 -126 -52q-53 -53 -53 -126v-597q0 -74 53 -126q52 -53 126 -53h1550q74 0 127 53q52 52 52 126v597q0 73 -52 126q-53 52 -127 52h-1550zM567 0q-172 0 -295 122q-122 123 -122 295v597q0 172 122 294q123 123 295 123h1550q173 0 295 -123
q123 -122 123 -294v-597q0 -172 -123 -295q-122 -122 -295 -122h-1550z" />
    <glyph glyph-name="P" unicode="P" 
d="M388 835v357h1729q74 0 127 -52q52 -53 52 -126q0 -74 -52 -127q-53 -52 -127 -52h-1729zM150 1431v-1431h238v596h1729q173 0 295 123q123 122 123 295q0 172 -123 294q-122 123 -295 123h-1967z" />
    <glyph glyph-name="Q" unicode="Q" 
d="M2296 417q0 -58 -34 -105q-34 -46 -88 -64l-72 169h-268l76 -179h-1343q-74 0 -126 53q-53 52 -53 126v596q0 74 53 127q52 52 126 52h1550q74 0 127 -52q52 -53 52 -127v-596zM567 1431q-172 0 -295 -123q-122 -122 -122 -295v-596q0 -172 122 -295q123 -122 295 -122
h1445l76 -179h268l-88 207q119 46 192 151q75 107 75 238v596q0 173 -123 295q-122 123 -295 123h-1550z" />
    <glyph glyph-name="R" unicode="R" 
d="M388 835v357h1729q74 0 127 -52q52 -53 52 -126q0 -74 -52 -127q-53 -52 -127 -52h-1729zM2472 793q63 101 63 221q0 172 -123 294q-122 123 -295 123h-1967v-1431h238v596h1431q198 0 337 -140q140 -140 140 -337v-119h239v119q0 310 -228 523q103 53 165 151z" />
    <glyph glyph-name="S" unicode="S" 
d="M210 0v238h1907q74 0 127 53q52 52 52 126t-52 127q-53 52 -127 52h-1550q-172 0 -295 123q-122 122 -122 295q0 172 122 294q123 123 295 123h1908v-239h-1908q-74 0 -126 -52q-53 -53 -53 -126q0 -74 53 -127q52 -52 126 -52h1550q173 0 295 -123q123 -122 123 -295
q0 -172 -123 -295q-122 -122 -295 -122h-1907z" />
    <glyph glyph-name="T" unicode="T" 
d="M150 1431v-239h1073v-1192h239v1192h1073v239h-2385z" />
    <glyph glyph-name="U" unicode="U" 
d="M567 0q-172 0 -295 122q-122 123 -122 295v1014h238v-1014q0 -74 53 -126q52 -53 126 -53h1550q74 0 127 53q52 52 52 126v1014h239v-1014q0 -172 -123 -295q-122 -122 -295 -122h-1550z" />
    <glyph glyph-name="V" unicode="V" horiz-adv-x="3034" 
d="M2571 1431l-1054 -1246l-1055 1246h-312l1211 -1431h312l1211 1431h-313z" />
    <glyph glyph-name="W" unicode="W" horiz-adv-x="3872" 
d="M3415 1431l-997 -1235l-378 519h-208l-378 -519l-997 1235h-307l1156 -1431h300l330 453l329 -453h301l1156 1431h-307z" />
    <glyph glyph-name="X" unicode="X" horiz-adv-x="2760" 
d="M2194 1431l-814 -570l-814 570h-416l1022 -716l-1022 -715h416l814 570l814 -570h416l-1022 715l1022 716h-416z" />
    <glyph glyph-name="Y" unicode="Y" horiz-adv-x="2764" 
d="M2217 1431l-835 -626l-835 626h-397l1113 -835v-596h238v596l1113 835h-397z" />
    <glyph glyph-name="Z" unicode="Z" 
d="M150 1431v-239h1805l-1805 -1003v-189h2385v238h-1806l1806 1003v190h-2385z" />
    <glyph glyph-name="underscore" unicode="_" horiz-adv-x="1969" 
d="M150 0h1669v238h-1669v-238z" />
    <glyph glyph-name="grave" unicode="`" horiz-adv-x="717" 
d="M150 1548q74 0 126 -53q53 -52 53 -126v-179h238v179q0 172 -122 295q-122 122 -295 122v-238z" />
    <glyph glyph-name="a" unicode="a" horiz-adv-x="3031" 
d="M1409 1431l-1259 -1431h318l1047 1191l1048 -1191h318l-1259 1431h-213z" />
    <glyph glyph-name="b" unicode="b" 
d="M388 835h1729q74 0 127 52q52 53 52 127q0 73 -52 126q-53 52 -127 52h-1729v-357zM388 238h1729q74 0 127 53q52 52 52 126t-52 127q-53 52 -127 52h-1729v-358zM150 0v1431h1967q173 0 295 -123q123 -122 123 -294q0 -176 -126 -299q126 -122 126 -298
q0 -172 -123 -295q-122 -122 -295 -122h-1967z" />
    <glyph glyph-name="c" unicode="c" 
d="M2535 0h-1670q-295 0 -505 210t-210 505q0 296 210 506t505 210h1670v-239h-1670q-197 0 -337 -139q-140 -140 -140 -338q0 -197 140 -337t337 -140h1670v-238z" />
    <glyph glyph-name="d" unicode="d" 
d="M150 1431v-239h1669q198 0 337 -139q140 -140 140 -338q0 -197 -140 -337q-139 -140 -337 -140h-1431v716h-238v-954h1669q296 0 506 210t210 505q0 296 -210 506t-506 210h-1669z" />
    <glyph glyph-name="e" unicode="e" 
d="M150 835v-835h2385v238h-2147v358h2147v239h-2385zM150 1431v-239h2385v239h-2385z" />
    <glyph glyph-name="f" unicode="f" 
d="M150 835v-835h238v596h2147v239h-2385zM150 1431v-239h2385v239h-2385z" />
    <glyph glyph-name="g" unicode="g" 
d="M567 0q-172 0 -295 122q-122 123 -122 295v597q0 172 122 294q123 123 295 123h1610q148 0 253 -105t105 -253h-239q0 49 -35 84t-84 35h-1610q-74 0 -126 -52q-53 -53 -53 -126v-597q0 -74 53 -126q52 -53 126 -53h1550q74 0 127 53q52 52 52 126v179h-715v239h954v-418
q0 -172 -123 -295q-122 -122 -295 -122h-1550z" />
    <glyph glyph-name="h" unicode="h" 
d="M2296 1431v-596h-1908v596h-238v-1431h238v596h1908v-596h239v1431h-239z" />
    <glyph glyph-name="i" unicode="i" horiz-adv-x="538" 
d="M150 0h238v1431h-238v-1431z" />
    <glyph glyph-name="j" unicode="j" horiz-adv-x="1969" 
d="M150 0v238h1252q74 0 126 53q53 52 53 126v1014h238v-1014q0 -172 -122 -295q-122 -122 -295 -122h-1252z" />
    <glyph glyph-name="k" unicode="k" 
d="M2535 1431h-239v-119q0 -198 -140 -338q-139 -139 -337 -139h-1431v596h-238v-1431h238v596h1431q198 0 337 -140q140 -140 140 -337v-119h239v119q0 183 -88 343q-85 155 -233 253q148 98 233 253q88 160 88 344v119z" />
    <glyph glyph-name="l" unicode="l" 
d="M150 1431v-1431h2385v238h-2147v1193h-238z" />
    <glyph glyph-name="m" unicode="m" horiz-adv-x="2804" 
d="M2423 1431l-1021 -913l-1021 913h-231v-1431h238v1105l1014 -907l1013 907v-1105h239v1431h-231z" />
    <glyph glyph-name="n" unicode="n" 
d="M2296 1431v-1208l-1812 1208h-334v-1431h238v1208l1813 -1208h334v1431h-239z" />
    <glyph glyph-name="o" unicode="o" 
d="M567 1192q-74 0 -126 -52q-53 -53 -53 -126v-597q0 -74 53 -126q52 -53 126 -53h1550q74 0 127 53q52 52 52 126v597q0 73 -52 126q-53 52 -127 52h-1550zM567 0q-172 0 -295 122q-122 123 -122 295v597q0 172 122 294q123 123 295 123h1550q173 0 295 -123
q123 -122 123 -294v-597q0 -172 -123 -295q-122 -122 -295 -122h-1550z" />
    <glyph glyph-name="p" unicode="p" 
d="M150 1431v-239h1967q74 0 127 -52q52 -53 52 -126q0 -74 -52 -127q-53 -52 -127 -52h-1967v-835h238v596h1729q173 0 295 123q123 122 123 295q0 172 -123 294q-122 123 -295 123h-1967z" />
    <glyph glyph-name="q" unicode="q" 
d="M2296 417q0 -58 -34 -105q-34 -46 -88 -64l-72 169h-268l76 -179h-1343q-74 0 -126 53q-53 52 -53 126v596q0 74 53 127q52 52 126 52h1550q74 0 127 -52q52 -53 52 -127v-596zM567 1431q-172 0 -295 -123q-122 -122 -122 -295v-596q0 -172 122 -295q123 -122 295 -122
h1445l76 -179h268l-88 207q119 46 192 151q75 107 75 238v596q0 173 -123 295q-122 123 -295 123h-1550z" />
    <glyph glyph-name="r" unicode="r" 
d="M2472 793q63 101 63 221q0 172 -123 294q-122 123 -295 123h-1967v-239h1967q74 0 127 -52q52 -53 52 -126q0 -74 -52 -127q-53 -52 -127 -52h-1967v-835h238v596h1431q198 0 337 -140q140 -140 140 -337v-119h239v119q0 310 -228 523q103 53 165 151z" />
    <glyph glyph-name="s" unicode="s" 
d="M210 0v238h1907q74 0 127 53q52 52 52 126t-52 127q-53 52 -127 52h-1550q-172 0 -295 123q-122 122 -122 295q0 172 122 294q123 123 295 123h1908v-239h-1908q-74 0 -126 -52q-53 -53 -53 -126q0 -74 53 -127q52 -52 126 -52h1550q173 0 295 -123q123 -122 123 -295
q0 -172 -123 -295q-122 -122 -295 -122h-1907z" />
    <glyph glyph-name="t" unicode="t" 
d="M150 1431v-239h1073v-1192h239v1192h1073v239h-2385z" />
    <glyph glyph-name="u" unicode="u" 
d="M567 0q-172 0 -295 122q-122 123 -122 295v1014h238v-1014q0 -74 53 -126q52 -53 126 -53h1550q74 0 127 53q52 52 52 126v1014h239v-1014q0 -172 -123 -295q-122 -122 -295 -122h-1550z" />
    <glyph glyph-name="v" unicode="v" horiz-adv-x="3034" 
d="M2571 1431l-1054 -1246l-1055 1246h-312l1211 -1431h312l1211 1431h-313z" />
    <glyph glyph-name="w" unicode="w" horiz-adv-x="3872" 
d="M3415 1431l-997 -1235l-378 519h-208l-378 -519l-997 1235h-307l1156 -1431h300l330 453l329 -453h301l1156 1431h-307z" />
    <glyph glyph-name="x" unicode="x" horiz-adv-x="2760" 
d="M2194 1431l-814 -570l-814 570h-416l1022 -716l-1022 -715h416l814 570l814 -570h416l-1022 715l1022 716h-416z" />
    <glyph glyph-name="y" unicode="y" horiz-adv-x="2764" 
d="M2217 1431l-835 -626l-835 626h-397l1113 -835v-596h238v596l1113 835h-397z" />
    <glyph glyph-name="z" unicode="z" 
d="M150 1431v-239h1805l-1805 -1003v-189h2385v238h-1806l1806 1003v190h-2385z" />
    <glyph glyph-name="quoteleft" unicode="&#x2018;" horiz-adv-x="717" 
d="M567 1551q-74 0 -126 -53q-53 -52 -53 -126v-179h-238v179q0 172 122 295q123 122 295 122v-238z" />
    <glyph glyph-name="quoteright" unicode="&#x2019;" horiz-adv-x="717" 
d="M150 1548q74 0 126 -53q53 -52 53 -126v-179h238v179q0 172 -122 295q-122 122 -295 122v-238z" />
    <glyph glyph-name="quotedblleft" unicode="&#x201c;" horiz-adv-x="717" 
d="M567 1551q-74 0 -126 -53q-53 -52 -53 -126v-179h-238v179q0 172 122 295q123 122 295 122v-238z" />
    <glyph glyph-name="quotedblright" unicode="&#x201d;" horiz-adv-x="717" 
d="M150 1548q74 0 126 -53q53 -52 53 -126v-179h238v179q0 172 -122 295q-122 122 -295 122v-238z" />
    <glyph glyph-name="uniF001" unicode="&#xf001;" horiz-adv-x="1073" 
 />
    <glyph glyph-name="uniF001" unicode="&#xfb01;" horiz-adv-x="1073" 
 />
    <glyph glyph-name="uniF002" unicode="&#xf002;" horiz-adv-x="1081" 
 />
    <glyph glyph-name="uniF002" unicode="&#xfb02;" horiz-adv-x="1081" 
 />
    </font>
</defs>
</svg>
